<svg xmlns="http://www.w3.org/2000/svg" width="28" height="28" fill="none" class="dark:white-icon h-7 w-7"><path fill="#FF6F61" d="M13.997 14.002H8.164l2.917-7 2.916 7z"/><path fill="#9656A1" fill-rule="evenodd" d="M11.2 4.666c.502 0 .948.321 1.107.798l4.493 13.48 1.693-5.08a1.167 1.167 0 0 1 1.107-.798h3.733a1.166 1.166 0 1 1 0 2.333h-2.892l-2.534 7.603a1.167 1.167 0 0 1-2.214 0L11.2 9.522l-1.693 5.08a1.167 1.167 0 0 1-1.107.797H4.667a1.166 1.166 0 1 1 0-2.333h2.892l2.534-7.602a1.167 1.167 0 0 1 1.107-.798z" clip-rule="evenodd"/></svg>