<svg xmlns="http://www.w3.org/2000/svg" width="28" height="28" fill="none" class="dark:white-icon h-7 w-7"><path fill="#9656A1" fill-rule="evenodd" d="M24.5 16.255V21a1.169 1.169 0 0 1-1.587 1.088l-.004-.001-.02-.008-.082-.03a22.797 22.797 0 0 0-1.429-.467c-.915-.264-1.949-.493-2.712-.493-.762 0-1.797.229-2.712.493-.442.128-.83.256-1.106.352l-.322.114-.083.031-.011.005a1.179 1.179 0 0 1-.862 0l-.013-.005-.083-.03a22.797 22.797 0 0 0-1.429-.467c-.915-.264-1.949-.493-2.712-.493-.762 0-1.797.229-2.712.493-.442.128-.83.256-1.106.352l-.322.114-.083.031-.02.008-.004.001A1.168 1.168 0 0 1 3.5 21V8.078c0-.483.297-.916.747-1.089l.004-.002.008-.003.028-.01.1-.038c.087-.031.21-.076.363-.129.306-.106.734-.247 1.224-.389.95-.274 2.25-.584 3.36-.584.456 0 .945.053 1.428.133a9.4 9.4 0 0 0-.26 2.202v.121a6.793 6.793 0 0 0-1.169-.123c-.762 0-1.797.229-2.712.493-.291.084-.56.169-.788.244v10.479l.141-.042c.95-.274 2.25-.584 3.36-.584 1.109 0 2.408.31 3.358.584l.141.041v-5.041a9.364 9.364 0 0 0 2.334 1.912v3.13l.14-.042c.95-.274 2.25-.584 3.36-.584 1.109 0 2.408.31 3.358.584l.141.041V17.21a9.315 9.315 0 0 0 2.334-.954zM10.805 10.54a1.132 1.132 0 0 0-.304-.04H8.167a1.166 1.166 0 1 0 0 2.333h2.334c.404 0 .76-.206.97-.518a9.205 9.205 0 0 1-.666-1.775zM10.501 14H8.167a1.167 1.167 0 0 0 0 2.333h2.334a1.166 1.166 0 1 0 0-2.333z" clip-rule="evenodd"/><path fill="#FF6F61" fill-rule="evenodd" d="M19.832 15.166a7 7 0 1 0 0-14 7 7 0 0 0 0 14zm1.166-10.499a1.167 1.167 0 0 0-2.334 0v4.299c0 .392.198.759.526.974l2.333 1.536a1.167 1.167 0 0 0 1.283-1.95l-1.808-1.19V4.668z" clip-rule="evenodd"/></svg>