<svg xmlns="http://www.w3.org/2000/svg" width="24" height="24" style="width:100%;height:100%;transform:translate3d(0,0,0);content-visibility:visible"><defs><clipPath id="a"><path d="M0 0h24v24H0z"/></clipPath></defs><g clip-path="url(#a)" style="display:block"><path fill="#FF7060" d="M12.93 9.19c.52-.52 1.5-.15 1.5.52v5.85c0 .52-.37.98-.97.98s-.83-.37-.98-.82v-3.68l-1.2 1.35c-.3.3-.82.3-1.2 0-.38-.38-.38-.98-.15-1.2l3-3z"/><path fill="#9656A0" d="M18.86 11.89c0 4.88-2.17 7.2-6.97 7.2H6.93c-.52 0-.97-.38-.97-.98V7.24c0-.52.38-.98.98-.98h1.35v.83c0 .38.38.82.98.82s.97-.38.97-.98v-.52h4.65v.83c0 .38.38.82.98.82s.67-.38.67-.98v-.67h1.35c.52 0 .98.37.98.97v4.5l-.01.01zm-.97-7.2h-1.36v-.83c0-.38-.37-.82-.97-.82-.38 0-.83.38-.83.98v.67h-4.64v-.83c0-.38-.38-.82-.98-.82-.38 0-.82.38-.82.98v.67H6.93c-1.5 0-2.7 1.2-2.7 2.7v10.88c0 1.5 1.2 2.7 2.7 2.7h11.18c1.35-.15 2.48-1.35 2.48-2.7V7.39c0-1.5-1.2-2.7-2.7-2.7z"/><path fill="#FFF" d="M14.51 9.79v5.7c0 .52-.38.98-.98.98s-.82-.38-.97-.83v-3.67l-1.2 1.35c-.3.3-.82.3-1.2 0-.38-.38-.38-.98-.15-1.2l3-3c.52-.52 1.5-.15 1.5.52v.15zm3.38-3.37h-1.36v.67c0 .52-.37.98-.67.98-.52 0-.98-.38-.98-.83v-.82h-4.65v.52c0 .52-.37.98-.97.98s-.98-.38-.98-.83v-.82H6.93c-.52 0-.98.38-.98.98v10.87c0 .52.38.98.98.98h4.87c4.8 0 6.98-2.32 6.98-7.2l.01-4.51c0-.52-.38-.97-.98-.97h.08z"/></g></svg>