<svg xmlns="http://www.w3.org/2000/svg" width="24" height="24" fill="none"><path fill="#FF6F61" fill-rule="evenodd" d="M12 19a6 6 0 0 0 5.765-7.667l1.558-1.558a8 8 0 1 1-1.422-2.177l-1.416 1.417A6 6 0 1 0 12 19zm-2-6a2 2 0 0 1 3.245-1.565 1 1 0 1 0 1.247-1.564 4 4 0 1 0 1.182 4.712 1 1 0 1 0-1.836-.792A2 2 0 0 1 10 13z" clip-rule="evenodd"/><path fill="#9656A1" fill-rule="evenodd" d="M16.902 4.708a1 1 0 0 1 .242-1.024l1.112-1.112a.5.5 0 0 1 .828.196l.434 1.3.775-.775a1 1 0 1 1 1.414 1.414l-.91.91 1.445.398a.5.5 0 0 1 .221.835l-1.096 1.097a1 1 0 0 1-.984.253L18.7 7.715l-4.993 4.992a1 1 0 0 1-1.414-1.414l5.103-5.104-.494-1.481z" clip-rule="evenodd"/><path fill="#9656A1" d="M12 12h1v1h-1v-1z"/></svg>