<svg xmlns="http://www.w3.org/2000/svg" width="24" height="24"><g fill="none" fill-rule="evenodd"><path fill="#FF6F61" d="M11 12h2a2 2 0 0 1 2 2v6H9v-6a2 2 0 0 1 2-2z"/><path fill="#9656A1" fill-rule="nonzero" d="M11.419 4.186a1 1 0 0 1 1.055-.067l.107.067 7 5a1 1 0 0 1 .412.694L20 10l.002 7.64c-.005.584-.044.866-.188 1.227C19.521 19.604 18.87 20 18 20a1 1 0 0 1-.117-1.993l.1-.006.006-.053a4.12 4.12 0 0 0 .011-.265v-7.169l-6-4.286-6 4.286v7.17c.002.074.004.137.007.19l.01.127.1.006a1 1 0 0 1 .877.876L7 19a1 1 0 0 1-1 1c-.87 0-1.521-.396-1.814-1.133-.158-.397-.19-.7-.188-1.41l.001-.288L4 10a1 1 0 0 1 .325-.738l.094-.076 7-5z"/></g></svg>