<svg xmlns="http://www.w3.org/2000/svg" width="24" height="24" fill="none" class="h-4 w-4 group-hover:grayscale-0"><path fill="#FF6F61" fill-rule="evenodd" d="m20 12-3.397 4.6a.975.975 0 0 1-1.378.2 1.01 1.01 0 0 1-.265-1.295l.068-.105L16.8 13H8.923a.992.992 0 0 1-.985-1c0-.513.38-.935.87-.993L8.923 11H16.8l-1.772-2.4a1.012 1.012 0 0 1 .102-1.318l.095-.082a.974.974 0 0 1 1.298.104l.08.096L20 12z" clip-rule="evenodd"/><path fill="#9656A1" d="M9.908 19c0 .513-.38.936-.87.993L8.924 20h-1.97c-1.573 0-2.859-1.249-2.948-2.824L4 17V7c0-1.598 1.23-2.904 2.78-2.995L6.954 4h1.97c.543 0 .984.448.984 1 0 .513-.38.936-.87.993L8.924 6h-1.97a.99.99 0 0 0-.978.883L5.97 7v10c0 .513.38.936.87.993l.114.007h1.97c.543 0 .984.448.984 1z"/></svg>