<svg xmlns="http://www.w3.org/2000/svg" width="24" height="24" class="dark:white-icon h-7 w-7"><g fill="none" fill-rule="evenodd"><path fill="#FF6F61" d="M14 19a2 2 0 0 1 1.995 1.85L16 21H8a2 2 0 0 1 2-2h4zM12 7a2 2 0 1 1 0 4 2 2 0 0 1 0-4z"/><path fill="#9656A1" fill-rule="nonzero" d="M4.78 3h14.44l-.401 2h3.334l-.163 1.141c-.714 4.997-2.229 7.733-4.808 7.855l-.162.003-.118.59a3 3 0 0 1-2.764 2.406L13.96 17h-3.92a3 3 0 0 1-2.902-2.238l-.04-.174-.12-.588c-2.552-.014-4.092-2.516-4.861-7.163L2.063 6.5 1.841 5H5.18l-.4-2zm12 2H7.219l1.84 9.196a1 1 0 0 0 .749.777l.114.02.118.007h3.92a1 1 0 0 0 .951-.69l.03-.114L16.78 5zm3.044 2h-.958l-.617 4.319.073-.088c.554-.711 1.031-1.926 1.397-3.69l.072-.36.033-.181zM5.133 7h-.958l.034.18c.352 1.842.817 3.127 1.36 3.904l.11.149.071.085L5.133 7z"/></g></svg>