<svg xmlns="http://www.w3.org/2000/svg" width="28" height="28" fill="none" class="dark:white-icon h-7 w-7"><path fill="#FF6F61" fill-rule="evenodd" d="m14.001 4.664 9.334 4.667H4.668l9.333-4.667z" clip-rule="evenodd"/><path fill="#9656A1" fill-rule="evenodd" d="M7.007 10.5c.599 0 1.092.45 1.16 1.03l.007.137v7a1.167 1.167 0 0 1-2.325.136l-.008-.136v-7c0-.645.522-1.167 1.166-1.167zm4.664 0c.598 0 1.091.45 1.159 1.03l.008.137v7a1.167 1.167 0 0 1-2.326.136l-.008-.136v-7c0-.645.523-1.167 1.167-1.167zm4.67 0c.598 0 1.09.45 1.158 1.03l.008.137v7a1.167 1.167 0 0 1-2.325.136l-.008-.136v-7c0-.645.522-1.167 1.166-1.167zm5.822 1.03a1.167 1.167 0 0 0-2.326.137v7l.008.136a1.167 1.167 0 0 0 2.326-.136v-7l-.008-.136zm1.175 10.639c0-.645-.522-1.167-1.166-1.167H5.839l-.137.008a1.167 1.167 0 0 0 .137 2.325h16.333l.136-.008c.58-.067 1.03-.56 1.03-1.158z" clip-rule="evenodd"/></svg>