<svg xmlns="http://www.w3.org/2000/svg" width="24" height="24"><g fill="none" fill-rule="evenodd"><path fill="#FF6F61" d="M8.977 13.032c.187 2.008.92 4 2.183 5.968-2.695-.725-4.759-3.07-5.16-5.967zM11.16 5c-1.264 1.968-1.996 3.959-2.183 5.967H6c.398-2.879 2.436-5.21 5.105-5.953z"/><path fill="#9656A1" fill-rule="nonzero" d="M12 3a9 9 0 0 1 8.19 12.738 1 1 0 1 1-1.82-.832 6.94 6.94 0 0 0 .56-1.905h-2.573c-.182 1.89-.88 3.766-2.082 5.62a6.93 6.93 0 0 0 1.687-.85 1 1 0 1 1 1.134 1.648A9 9 0 1 1 12 3zM8.048 13l-2.977.001a7.008 7.008 0 0 0 5.159 5.773c-1.263-1.905-1.995-3.831-2.182-5.773zm6.298 0H10.06c.201 1.683.91 3.384 2.141 5.11 1.235-1.726 1.944-3.427 2.145-5.11zM10.23 5.228l-.092.023A7.008 7.008 0 0 0 5.071 11h2.977c.187-1.942.919-3.869 2.183-5.773zm1.973.663-.134.187c-1.15 1.662-1.817 3.3-2.01 4.923h4.286c-.201-1.683-.91-3.384-2.142-5.11zm2.068-.513.111.171c1.136 1.8 1.798 3.619 1.974 5.452h2.572a7.009 7.009 0 0 0-4.657-5.623z"/></g></svg>