<svg xmlns="http://www.w3.org/2000/svg" width="200" height="200" style="width:100%;height:100%;transform:translate3d(0,0,0);content-visibility:visible"><defs><linearGradient id="h" x1="-1.378" x2="3.406" y1="-5.115" y2="7.377" gradientUnits="userSpaceOnUse" spreadMethod="pad"><stop offset="0%" stop-color="#00A4FF"/><stop offset="50%" stop-color="#4B7DD0"/><stop offset="100%" stop-color="#9656A1"/></linearGradient><linearGradient id="g" x1="0" x2="100" y1="0" y2="0" gradientUnits="userSpaceOnUse" spreadMethod="pad"><stop offset="0%" stop-color="#FF8E3C"/><stop offset="50%" stop-color="#FF633A"/><stop offset="100%" stop-color="#FF3939"/></linearGradient><linearGradient id="e" x1="67.001" x2="25.168" y1="-44.738" y2="58.453" gradientUnits="userSpaceOnUse" spreadMethod="pad"><stop offset="0%" stop-color="#0C0403"/><stop offset="26%" stop-color="#1A0A09"/><stop offset="53%" stop-color="#27110F"/><stop offset="76%" stop-color="#1A0A09"/><stop offset="100%" stop-color="#0C0403"/></linearGradient><linearGradient id="d" x1="67.001" x2="25.168" y1="-44.738" y2="58.453" gradientUnits="userSpaceOnUse" spreadMethod="pad"><stop offset="0%" stop-color="#7B7170"/><stop offset="26%" stop-color="#B8B1B1"/><stop offset="53%" stop-color="#F4F2F2"/><stop offset="76%" stop-color="#B8B1B1"/><stop offset="100%" stop-color="#7B7170"/></linearGradient><linearGradient id="b" x1="0" x2="190" y1="0" y2="0" gradientUnits="userSpaceOnUse" spreadMethod="pad"><stop offset="0%" stop-color="#7B7170"/><stop offset="11%" stop-color="#B8B1B1"/><stop offset="22%" stop-color="#F4F2F2"/><stop offset="54%" stop-color="#F4F2F2"/><stop offset="87%" stop-color="#F4F2F2"/><stop offset="93%" stop-color="#B8B1B1"/><stop offset="100%" stop-color="#7B7170"/></linearGradient><clipPath id="a"><path d="M0 0h200v200H0z"/></clipPath><clipPath id="f"><path fill="#fff" d="M-61.33-65.152v94.92H77.795v-94.92H-61.33"/></clipPath><radialGradient id="c" cx="0" cy="-14" r="353.278" fx="0" fy="-14" gradientUnits="userSpaceOnUse" spreadMethod="pad"><stop offset="12%" stop-color="#7B7170"/><stop offset="32%" stop-color="#B8B1B1"/><stop offset="51%" stop-color="#F4F2F2"/><stop offset="67%" stop-color="#B8B1B1"/><stop offset="82%" stop-color="#7B7170"/></radialGradient></defs><g clip-path="url(#a)"><path fill="#9656A1" fill-opacity=".3" d="M47 158c22.091 0 40 3.582 40 8s-17.909 8-40 8-40-3.582-40-8 17.909-8 40-8z" style="display:block" transform="matrix(1.75548 0 0 .98558 17.492 19.197)"/><path fill="url(#b)" d="M12.701 150.751v-3.2h174.6v3.2a4 4 0 0 1-4 4h-166.6a4 4 0 0 1-4-4z" style="display:block" transform="translate(-.001 1.5)"/><path fill="url(#c)" d="M27.414 131.484a2 2 0 0 1 1.414-.586h142.344a2 2 0 0 1 1.414.586l14 14c1.26 1.26.367 3.414-1.414 3.414H14.828c-1.782 0-2.674-2.154-1.414-3.414l14-14z" style="display:block" transform="translate(0 1.5)"/><g style="display:block"><path fill="url(#d)" d="M71.572-41.813v83.626c0 4.416-3.585 8-8 8H-63.572c-4.415 0-8-3.584-8-8v-83.626c0-4.416 3.585-8 8-8H63.572c4.415 0 8 3.584 8 8z" transform="translate(99.952 82.313)"/></g><path fill="url(#e)" d="M71.572-43.813v87.626c0 3.312-2.69 6-6 6H-65.572c-3.31 0-6-2.688-6-6v-87.626c0-3.312 2.69-6 6-6H65.572c3.31 0 6 2.688 6 6z" style="display:block" transform="matrix(.9755 0 0 .96465 100 82.313)"/><g clip-path="url(#f)" style="display:block" transform="translate(91.58 100.062)"><path fill="#FFF" fill-opacity=".1" d="M-173.2-72.82 29.912 130.292l-50.72 50.72-203.114-203.114 50.72-50.72z"/></g><path fill="url(#g)" d="m25 101-1.947-5.262a7.998 7.998 0 0 0-2.435-3.413L19 91l1.618-1.325a8.001 8.001 0 0 0 2.435-3.414L25 81l1.947 5.261a8.013 8.013 0 0 0 2.435 3.414l.417.342L31 91l-1.201.983-.417.342a7.989 7.989 0 0 0-2.435 3.413L25 101z" style="display:block" transform="matrix(0 0 0 0 26.281 92.75)"/><path fill="#FFF" fill-opacity=".3" d="m25 86-.611 1.65A7.855 7.855 0 0 1 22 91a7.855 7.855 0 0 1 2.389 3.35L25 96l.611-1.65A7.847 7.847 0 0 1 28 91a7.847 7.847 0 0 1-2.389-3.35L25 86z" style="display:block" transform="matrix(0 0 0 0 25.781 92.375)"/><path fill="url(#h)" d="m0 10-1.947-5.262a7.998 7.998 0 0 0-2.435-3.413L-6 0l1.618-1.325a7.998 7.998 0 0 0 2.435-3.413L0-10l1.947 5.262a7.998 7.998 0 0 0 2.435 3.413L6 0 4.382 1.325a7.998 7.998 0 0 0-2.435 3.413L0 10z" style="display:block" transform="matrix(0 0 0 0 5.969 107.656)"/><path fill="#FFF" fill-opacity=".3" d="m25 86-.611 1.65A7.855 7.855 0 0 1 22 91a7.855 7.855 0 0 1 2.389 3.35L25 96l.611-1.65A7.847 7.847 0 0 1 28 91a7.847 7.847 0 0 1-2.389-3.35L25 86z" style="display:block" transform="matrix(0 0 0 0 5.969 107.906)"/><path fill="#FF8E3C" d="m150 40-2.665-7.202-.666-1.8-1.317-3.559a8.001 8.001 0 0 0-2.435-3.414L138 20l4.917-4.026a7.998 7.998 0 0 0 2.435-3.413L150 0l4.648 12.561a7.998 7.998 0 0 0 2.435 3.413L162 20l-4.917 4.025a8.001 8.001 0 0 0-2.435 3.414l-1.317 3.559-.666 1.8L150 40z" style="display:block" transform="matrix(0 0 0 0 155.406 21.25)"/><path fill="#FFF" fill-opacity=".3" d="m150 10-1.947 5.261a8.001 8.001 0 0 1-2.435 3.414L144 20l1.618 1.325a7.998 7.998 0 0 1 2.435 3.413L150 30l1.947-5.262a7.998 7.998 0 0 1 2.435-3.413L156 20l-1.618-1.325a8.001 8.001 0 0 1-2.435-3.414L150 10z" style="display:block" transform="matrix(0 0 0 0 155 21.25)"/><path fill="#4182D6" d="m184 45-1.947-5.262a7.998 7.998 0 0 0-2.435-3.413L178 35l1.618-1.325a8.001 8.001 0 0 0 2.435-3.414L184 25l1.947 5.261a8.001 8.001 0 0 0 2.435 3.414L190 35l-1.618 1.325a7.998 7.998 0 0 0-2.435 3.413L184 45z" style="display:block" transform="matrix(0 0 0 0 189.1 36.275)"/><path fill="#FFF" fill-opacity=".3" d="m184 30-.611 1.65A7.847 7.847 0 0 1 181 35a7.847 7.847 0 0 1 2.389 3.35L184 40l.611-1.65A7.847 7.847 0 0 1 187 35a7.847 7.847 0 0 1-2.389-3.35L184 30z" style="display:block" transform="matrix(0 0 0 0 189.5 36.85)"/></g></svg>