<svg xmlns="http://www.w3.org/2000/svg" width="160" height="160" fill="none"><g clip-path="url(#a)"><g filter="url(#b)" opacity=".2" style="mix-blend-mode:multiply"><ellipse cx="80" cy="145.602" fill="#0C0403" rx="56" ry="8"/></g><path fill="url(#c)" fill-rule="evenodd" d="M95.776 73.298c0 17.95-15.6 32.501-15.6 32.501S64.574 91.248 64.574 73.298c0-17.95 15.6-32.501 15.6-32.501s15.6 14.551 15.6 32.5Zm2.605 0c0 15.36-9.905 28.574-15.1 34.45 6.576.195 21.112-.489 31.452-9.165 13.75-11.538 14.869-32.842 14.869-32.842s-17.7-2.17-31.244 6.275c.016.425.023.852.023 1.281Zm-36.406-.001c0 15.362 9.907 28.578 15.102 34.452-6.394.229-21.277-.317-31.807-9.153C31.52 87.058 30.4 65.754 30.4 65.754s18.005-2.208 31.59 6.494c-.01.349-.015.698-.015 1.049Zm2.6-27.3a2.6 2.6 0 1 0 0-5.2 2.6 2.6 0 0 0 0 5.2Zm18.201 70.589a2.6 2.6 0 1 1-5.2 0 2.6 2.6 0 0 1 5.2 0Zm13-70.589a2.6 2.6 0 1 0 0-5.2 2.6 2.6 0 0 0 0 5.2Z" clip-rule="evenodd"/><path fill="url(#d)" fill-rule="evenodd" d="M98.077 68.601c4.724-2.724 9.808-4.421 14.62-5.46-.053-8.668-2.107-15.391-2.107-15.391s-8.254 1.907-16.606 7.207c1.928 4.132 3.467 8.742 4.093 13.644Z" clip-rule="evenodd"/><path fill="url(#e)" fill-rule="evenodd" d="M62.149 69.748c.513-5.276 2.11-10.236 4.157-14.653-8.424-5.405-16.82-7.345-16.82-7.345s-2.213 7.239-2.105 16.378c4.86 1.034 10.023 2.768 14.768 5.62Z" clip-rule="evenodd"/></g><defs><radialGradient id="d" cx="0" cy="0" r="1" gradientTransform="matrix(0 15.8253 -14.2021 0 103.341 58.176)" gradientUnits="userSpaceOnUse"><stop stop-color="#FF8E3C"/><stop offset="1" stop-color="#FF3939"/></radialGradient><radialGradient id="e" cx="0" cy="0" r="1" gradientTransform="matrix(0 16.6956 -14.3666 0 56.842 58.749)" gradientUnits="userSpaceOnUse"><stop stop-color="#FF8E3C"/><stop offset="1" stop-color="#FF3939"/></radialGradient><linearGradient id="c" x1="16.471" x2="16.502" y1="40.816" y2="141.219" gradientUnits="userSpaceOnUse"><stop stop-color="#FF8E3C"/><stop offset="1" stop-color="#FF3939"/></linearGradient><clipPath id="a"><path fill="#fff" d="M0 0h160v160H0z"/></clipPath><filter id="b" width="128" height="32" x="16" y="129.602" color-interpolation-filters="sRGB" filterUnits="userSpaceOnUse"><feFlood flood-opacity="0" result="BackgroundImageFix"/><feBlend in="SourceGraphic" in2="BackgroundImageFix" result="shape"/><feGaussianBlur result="effect1_foregroundBlur_4164_109089" stdDeviation="4"/></filter></defs></svg>